<?xml version="1.0" encoding="UTF-8"?><svg id="Layer_1" xmlns="http://www.w3.org/2000/svg" width="459.27" height="72.88" viewBox="0 0 459.27 72.88"><defs><style>.cls-1{fill:#154b94;}</style></defs><path d="M87.25,7.56h14.35v59.74h-14.35V7.56Z"/><path d="M156.79,20.37h-17.36v46.93h-14.35V20.37h-17.36V7.56h49.08v12.81Z"/><path d="M173.55,52.69l13.58-5.24c1.46,5.59,5.67,8.6,11.26,8.6,4.9,0,7.48-1.98,7.48-5.24,0-10.74-29.74-4.81-29.74-26.3,0-10.57,7.74-18.05,21.75-18.05,11.35,0,19.42,5.76,21.57,14.01l-13.49,5.24c-1.29-4.81-4.47-7.05-8.77-7.05s-6.7,1.98-6.7,4.73c0,10.32,29.91,4.38,29.91,27.08,0,10.57-8.77,17.97-23.38,17.97-11.6,0-20.46-5.67-23.47-15.73Z"/><path d="M271.45,38.5v28.8h-14.35v-25.96c0-4.9-3.35-7.74-7.65-7.74s-7.82,3.09-7.82,7.22v26.48h-14.35V4.46h14.35v20.46c3.1-2.49,7.22-4.04,12.21-4.04,10.66,0,17.62,7.22,17.62,17.62Z"/><path d="M326.29,22v45.3h-13.24v-4.13c-3.18,3.35-7.48,5.24-13.07,5.24-13.15,0-22.61-10.14-22.61-23.72s9.46-22.87,22.61-22.87c5.59,0,9.89,1.72,13.07,4.9v-4.73h13.24ZM312.54,44.69c0-6.62-4.21-11.17-10.49-11.17s-10.4,4.73-10.4,11.17,4.3,11.09,10.4,11.09,10.49-4.56,10.49-11.09Z"/><path d="M381.48,22v45.3h-13.24v-4.13c-3.18,3.35-7.48,5.24-13.07,5.24-13.15,0-22.61-10.14-22.61-23.72s9.46-22.87,22.61-22.87c5.59,0,9.89,1.72,13.07,4.9v-4.73h13.24ZM367.72,44.69c0-6.62-4.21-11.17-10.49-11.17s-10.4,4.73-10.4,11.17,4.3,11.09,10.4,11.09,10.49-4.56,10.49-11.09Z"/><path d="M389.64,4.46h14.35v62.84h-14.35V4.46Z"/><path d="M459.27,22v45.3h-13.24v-4.13c-3.18,3.35-7.48,5.24-13.07,5.24-13.15,0-22.61-10.14-22.61-23.72s9.46-22.87,22.61-22.87c5.59,0,9.89,1.72,13.07,4.9v-4.73h13.24ZM445.51,44.69c0-6.62-4.21-11.17-10.49-11.17s-10.4,4.73-10.4,11.17,4.3,11.09,10.4,11.09,10.49-4.56,10.49-11.09Z"/><path class="cls-1" d="M87.25,7.56h14.35v59.74h-14.35V7.56Z"/><path class="cls-1" d="M156.79,20.37h-17.36v46.93h-14.35V20.37h-17.36V7.56h49.08v12.81Z"/><path class="cls-1" d="M173.55,52.69l13.58-5.24c1.46,5.59,5.67,8.6,11.26,8.6,4.9,0,7.48-1.98,7.48-5.24,0-10.74-29.74-4.81-29.74-26.3,0-10.57,7.74-18.05,21.75-18.05,11.35,0,19.42,5.76,21.57,14.01l-13.49,5.24c-1.29-4.81-4.47-7.05-8.77-7.05s-6.7,1.98-6.7,4.73c0,10.32,29.91,4.38,29.91,27.08,0,10.57-8.77,17.97-23.38,17.97-11.6,0-20.46-5.67-23.47-15.73Z"/><path class="cls-1" d="M271.45,38.5v28.8h-14.35v-25.96c0-4.9-3.35-7.74-7.65-7.74s-7.82,3.09-7.82,7.22v26.48h-14.35V4.46h14.35v20.46c3.1-2.49,7.22-4.04,12.21-4.04,10.66,0,17.62,7.22,17.62,17.62Z"/><path class="cls-1" d="M326.29,22v45.3h-13.24v-4.13c-3.18,3.35-7.48,5.24-13.07,5.24-13.15,0-22.61-10.14-22.61-23.72s9.46-22.87,22.61-22.87c5.59,0,9.89,1.72,13.07,4.9v-4.73h13.24ZM312.54,44.69c0-6.62-4.21-11.17-10.49-11.17s-10.4,4.73-10.4,11.17,4.3,11.09,10.4,11.09,10.49-4.56,10.49-11.09Z"/><path class="cls-1" d="M381.48,22v45.3h-13.24v-4.13c-3.18,3.35-7.48,5.24-13.07,5.24-13.15,0-22.61-10.14-22.61-23.72s9.46-22.87,22.61-22.87c5.59,0,9.89,1.72,13.07,4.9v-4.73h13.24ZM367.72,44.69c0-6.62-4.21-11.17-10.49-11.17s-10.4,4.73-10.4,11.17,4.3,11.09,10.4,11.09,10.49-4.56,10.49-11.09Z"/><path class="cls-1" d="M389.64,4.46h14.35v62.84h-14.35V4.46Z"/><path class="cls-1" d="M459.27,22v45.3h-13.24v-4.13c-3.18,3.35-7.48,5.24-13.07,5.24-13.15,0-22.61-10.14-22.61-23.72s9.46-22.87,22.61-22.87c5.59,0,9.89,1.72,13.07,4.9v-4.73h13.24ZM445.51,44.69c0-6.62-4.21-11.17-10.49-11.17s-10.4,4.73-10.4,11.17,4.3,11.09,10.4,11.09,10.49-4.56,10.49-11.09Z"/><path class="cls-1" d="M2.63,61.31c-1.29-3.62-5.1-15.79-.2-30.04C6.76,18.7,15.38,11.75,18.66,9.36,27.64,2.82,40.29-1.89,51.52.74c1.57.37,3.11,1.15,4.07,2.45,3.41,4.62-.85,12.61-3.9,16.36-3.61,4.43-8.59,7.52-13.62,10.09-7.08,3.62-14.42,6.99-20.63,12.05-6.37,5.2-11.13,12.33-14.8,19.62Z"/><path class="cls-1" d="M66.26,11.57c1.29,3.62,5.1,15.79.2,30.04-4.33,12.58-12.95,19.53-16.24,21.92-8.98,6.54-21.63,11.25-32.86,8.62-1.57-.37-3.11-1.15-4.07-2.45-3.41-4.62.85-12.61,3.9-16.36,3.61-4.43,8.59-7.52,13.62-10.09,7.08-3.62,14.42-6.99,20.63-12.05,6.37-5.2,11.13-12.33,14.8-19.62Z"/></svg>